<svg width="126" height="17" viewBox="0 0 126 17" fill="none" xmlns="http://www.w3.org/2000/svg">
<path d="M54.1968 13.6165V3.42944H56.3815L59.5876 9.89041L62.7512 3.42944H64.9358V13.6165H63.0973V6.58668L60.2941 12.16H58.8414L56.0382 6.58668V13.6165H54.1996H54.1968Z" fill="white"/>
<path d="M67.8382 5.27948C67.5032 5.27948 67.2279 5.17893 67.0123 4.97496C66.7967 4.77099 66.689 4.51531 66.689 4.20504C66.689 3.89477 66.7967 3.63909 67.0123 3.44086C67.2279 3.24264 67.5032 3.14209 67.8382 3.14209C68.1732 3.14209 68.4479 3.24264 68.6641 3.44086C68.8797 3.63909 68.9875 3.89477 68.9875 4.20504C68.9875 4.51531 68.8797 4.77386 68.6641 4.97496C68.4479 5.17893 68.1732 5.27948 67.8382 5.27948ZM66.9188 13.6193V6.39988H68.7576V13.6193H66.9188Z" fill="white"/>
<path d="M70.6843 13.6165V6.3971H72.3069L72.4517 7.61807C72.6731 7.19001 72.9906 6.85102 73.4081 6.5982C73.825 6.34539 74.3158 6.21899 74.8807 6.21899C75.7631 6.21899 76.4468 6.50053 76.9344 7.06361C77.4227 7.6267 77.6668 8.45121 77.6668 9.5371V13.6108H75.828V9.70949C75.828 9.08892 75.7034 8.61205 75.4534 8.28453C75.2041 7.95416 74.8151 7.79046 74.2905 7.79046C73.7652 7.79046 73.3484 7.97428 73.0192 8.34204C72.6874 8.70973 72.5225 9.22399 72.5225 9.88474V13.6108H70.6843V13.6165Z" fill="white"/>
<path d="M82.6999 13.7919C82.0305 13.7919 81.4286 13.6281 80.904 13.2977C80.3761 12.9674 79.9593 12.5163 79.6528 11.9446C79.3463 11.3729 79.1931 10.7237 79.1931 9.994C79.1931 9.26425 79.3463 8.61791 79.6528 8.05193C79.9593 7.48315 80.3761 7.03783 80.904 6.7132C81.4312 6.38857 82.0305 6.22482 82.6999 6.22482C83.2363 6.22482 83.707 6.32537 84.107 6.52934C84.5102 6.73331 84.8361 7.02059 85.0829 7.38832V3.1394H86.9217V13.6166H85.2848L85.0829 12.5824C84.853 12.9013 84.5498 13.1828 84.1693 13.427C83.7895 13.6712 83.3012 13.7919 82.6967 13.7919H82.6999ZM83.0882 12.163C83.6817 12.163 84.1693 11.9618 84.5465 11.5597C84.9244 11.1575 85.114 10.6403 85.114 10.0083C85.114 9.37635 84.9244 8.86209 84.5465 8.45701C84.1693 8.05478 83.6817 7.8537 83.0882 7.8537C82.4954 7.8537 82.0188 8.05193 81.6358 8.4513C81.2527 8.8506 81.0598 9.36194 81.0598 9.994C81.0598 10.626 81.2501 11.1431 81.6358 11.551C82.0188 11.959 82.5039 12.163 83.0882 12.163Z" fill="white"/>
<path d="M89.1234 13.6166V7.95424H88.1443V6.39719H89.1234V5.55258C89.1234 4.67924 89.3416 4.05871 89.776 3.69099C90.2129 3.32327 90.8031 3.1394 91.5518 3.1394H92.3439V4.7252H91.8414C91.5265 4.7252 91.2998 4.78841 91.1661 4.91481C91.033 5.04121 90.9648 5.2538 90.9648 5.55545V6.40007H92.5023V7.95716H90.9648V13.6195H89.126L89.1234 13.6166Z" fill="white"/>
<path d="M97.0877 13.7917C96.3981 13.7917 95.7767 13.6308 95.2261 13.3119C94.6762 12.9901 94.2392 12.5477 93.9185 11.9789C93.5977 11.41 93.436 10.7551 93.436 10.0081C93.436 9.26118 93.5977 8.60329 93.9243 8.03737C94.2502 7.46853 94.6872 7.02613 95.2378 6.70437C95.7884 6.38549 96.4098 6.22461 97.0987 6.22461C97.7883 6.22461 98.3953 6.38549 98.9459 6.70437C99.4965 7.02613 99.9335 7.46853 100.254 8.03737C100.574 8.60621 100.736 9.26118 100.736 10.0081C100.736 10.7551 100.574 11.413 100.254 11.9789C99.9335 12.5448 99.4933 12.9901 98.9401 13.3119C98.3843 13.6308 97.7655 13.7917 97.0851 13.7917H97.0877ZM97.0877 12.1771C97.5668 12.1771 97.9843 11.9962 98.3388 11.6312C98.6934 11.2664 98.8693 10.7263 98.8693 10.0081C98.8693 9.28994 98.6934 8.74985 98.3388 8.38501C97.9843 8.0201 97.5727 7.83914 97.1019 7.83914C96.6306 7.83914 96.1936 8.0201 95.8449 8.38501C95.4956 8.74985 95.3203 9.28994 95.3203 10.0081C95.3203 10.7263 95.4956 11.2664 95.8449 11.6312C96.1936 11.9962 96.6078 12.1771 97.0877 12.1771Z" fill="white"/>
<path d="M102.376 13.6166V6.39717H104.016L104.19 7.75028C104.447 7.2849 104.799 6.91428 105.245 6.63561C105.69 6.35695 106.215 6.22192 106.819 6.22192V8.18697H106.303C105.901 8.18697 105.54 8.25013 105.225 8.37656C104.91 8.50294 104.663 8.72128 104.484 9.03154C104.309 9.34179 104.218 9.77277 104.218 10.3272V13.6166H102.379H102.376Z" fill="white"/>
<path d="M110.914 11.4648C110.568 11.4648 110.247 11.4275 109.951 11.3471L109.421 11.8842C109.583 11.9704 109.804 12.0452 110.082 12.1026C110.36 12.16 110.811 12.2204 111.432 12.2778C112.38 12.364 113.073 12.5939 113.501 12.9616C113.93 13.3293 114.148 13.8407 114.148 14.4899C114.148 14.918 114.032 15.3231 113.802 15.7052C113.572 16.0872 113.217 16.3975 112.738 16.6359C112.258 16.8744 111.645 16.9921 110.899 16.9921C109.884 16.9921 109.064 16.7997 108.442 16.4176C107.818 16.0355 107.509 15.4581 107.509 14.6939C107.509 14.0447 107.821 13.4815 108.442 13.0047C108.25 12.9185 108.085 12.8266 107.946 12.7289C107.807 12.6312 107.685 12.5307 107.58 12.4243V12.0883L108.831 10.7495C108.275 10.2554 107.997 9.6205 107.997 8.84195C107.997 8.35644 108.113 7.9169 108.349 7.51759C108.584 7.12112 108.916 6.80511 109.348 6.57241C109.779 6.33971 110.301 6.22192 110.914 6.22192C111.316 6.22192 111.691 6.27938 112.034 6.39717H114.735V7.53193L113.513 7.61813C113.702 7.98583 113.799 8.39376 113.799 8.84195C113.799 9.32745 113.683 9.76985 113.453 10.1663C113.223 10.5627 112.891 10.8788 112.454 11.1115C112.017 11.3442 111.504 11.462 110.908 11.462L110.914 11.4648ZM109.189 14.5072C109.189 14.8663 109.353 15.1363 109.685 15.3144C110.017 15.4925 110.42 15.5845 110.899 15.5845C111.379 15.5845 111.734 15.4897 112.02 15.3001C112.306 15.1104 112.451 14.8577 112.451 14.5359C112.451 14.2745 112.358 14.0562 112.171 13.8809C111.983 13.7057 111.612 13.5993 111.055 13.562C110.664 13.5333 110.298 13.4902 109.963 13.4299C109.685 13.585 109.487 13.7545 109.367 13.9383C109.248 14.1222 109.189 14.3118 109.189 14.5072ZM110.914 10.0399C111.288 10.0399 111.597 9.93939 111.842 9.73539C112.086 9.53145 112.207 9.24125 112.207 8.86207C112.207 8.48282 112.086 8.19268 111.842 7.98875C111.597 7.78475 111.288 7.68421 110.914 7.68421C110.522 7.68421 110.204 7.78475 109.966 7.98875C109.727 8.19268 109.605 8.48282 109.605 8.86207C109.605 9.24125 109.725 9.53145 109.966 9.73539C110.204 9.93939 110.522 10.0399 110.914 10.0399Z" fill="white"/>
<path d="M119.249 13.7919C118.532 13.7919 117.894 13.6367 117.337 13.3264C116.782 13.0162 116.345 12.5795 116.03 12.0164C115.711 11.4533 115.556 10.8041 115.556 10.0658C115.556 9.32745 115.711 8.65521 116.024 8.07202C116.336 7.48884 116.767 7.03494 117.318 6.71031C117.868 6.38568 118.518 6.22192 119.264 6.22192C119.962 6.22192 120.581 6.37706 121.119 6.68732C121.658 6.99759 122.076 7.42276 122.376 7.95999C122.677 8.49723 122.83 9.09761 122.83 9.75836C122.83 9.86468 122.83 9.97671 122.822 10.0945C122.813 10.2123 122.81 10.3329 122.799 10.4594H117.38C117.417 11.0224 117.613 11.4648 117.961 11.7837C118.311 12.1026 118.736 12.2635 119.233 12.2635C119.607 12.2635 119.92 12.1773 120.175 12.0078C120.43 11.8383 120.618 11.6171 120.742 11.3471H122.609C122.476 11.8038 122.252 12.2175 121.94 12.591C121.627 12.9645 121.244 13.2575 120.79 13.47C120.336 13.6827 119.82 13.7889 119.244 13.7889L119.249 13.7919ZM119.264 7.73879C118.813 7.73879 118.416 7.86809 118.072 8.12375C117.726 8.38228 117.507 8.77016 117.411 9.29584H120.96C120.932 8.82182 120.759 8.44264 120.444 8.16107C120.129 7.87957 119.735 7.73879 119.267 7.73879H119.264Z" fill="white"/>
<path d="M123.012 5.52945V4.39468H122.666V4.08154H123.756V4.39468H123.4V5.52945H123.015H123.012ZM123.965 5.52945V4.08154H124.479L124.853 5.06692L125.262 4.08154H125.738V5.52945H125.381L125.372 4.58142L124.978 5.52945H124.709L124.314 4.54694V5.52945H123.968H123.965Z" fill="white"/>
<path d="M28.0741 0.878418H18.9495V15.8085H28.0741V0.878418Z" fill="#26C666"/>
<path d="M0.424805 15.8085H13.3287L28.074 0.878418H15.1701L0.424805 15.8085Z" fill="#26C666"/>
<path d="M39.0515 10.0799C39.1053 6.69859 37.3803 5.94591 35.4368 3.73096L23.5117 15.8055H36.4156L42.0703 10.0799H39.0515Z" fill="#26C666"/>
<path fill-rule="evenodd" clip-rule="evenodd" d="M39.0286 10.0801V11.4476V12.3813V13.6482V15.8085H48.0199V13.6482V12.3813V11.4476V10.0801H39.0286Z" fill="#26C666"/>
</svg>
